<?xml version="1.0" encoding="utf-8"?>
<!-- Generator: Adobe Illustrator 15.0.2, SVG Export Plug-In . SVG Version: 6.00 Build 0)  -->
<!DOCTYPE svg PUBLIC "-//W3C//DTD SVG 1.0//EN" "http://www.w3.org/TR/2001/REC-SVG-20010904/DTD/svg10.dtd" [
	<!ENTITY ns_extend "http://ns.adobe.com/Extensibility/1.0/">
	<!ENTITY ns_ai "http://ns.adobe.com/AdobeIllustrator/10.0/">
	<!ENTITY ns_graphs "http://ns.adobe.com/Graphs/1.0/">
	<!ENTITY ns_vars "http://ns.adobe.com/Variables/1.0/">
	<!ENTITY ns_imrep "http://ns.adobe.com/ImageReplacement/1.0/">
	<!ENTITY ns_sfw "http://ns.adobe.com/SaveForWeb/1.0/">
	<!ENTITY ns_custom "http://ns.adobe.com/GenericCustomNamespace/1.0/">
	<!ENTITY ns_adobe_xpath "http://ns.adobe.com/XPath/1.0/">
]>
<svg version="1.0" id="Ebene_1_xA0_Bild_1_" xmlns:x="&ns_extend;" xmlns:i="&ns_ai;" xmlns:graph="&ns_graphs;"
	 xmlns="http://www.w3.org/2000/svg" xmlns:xlink="http://www.w3.org/1999/xlink" x="0px" y="0px" width="638.889px"
	 height="608.333px" viewBox="0 0 638.889 608.333" enable-background="new 0 0 638.889 608.333" xml:space="preserve">
<metadata><?xpacket begin="﻿" id="W5M0MpCehiHzreSzNTczkc9d"?>
<x:xmpmeta xmlns:x="adobe:ns:meta/" x:xmptk="Adobe XMP Core 5.0-c060 61.134777, 2010/02/12-17:32:00        ">
   <rdf:RDF xmlns:rdf="http://www.w3.org/1999/02/22-rdf-syntax-ns#">
      <rdf:Description rdf:about=""
            xmlns:dc="http://purl.org/dc/elements/1.1/">
         <dc:format>image/svg+xml</dc:format>
         <dc:title>
            <rdf:Alt>
               <rdf:li xml:lang="x-default">Weißkopfseeadler</rdf:li>
            </rdf:Alt>
         </dc:title>
      </rdf:Description>
      <rdf:Description rdf:about=""
            xmlns:xmp="http://ns.adobe.com/xap/1.0/"
            xmlns:xmpGImg="http://ns.adobe.com/xap/1.0/g/img/">
         <xmp:MetadataDate>2011-02-01T16:33:22-05:00</xmp:MetadataDate>
         <xmp:ModifyDate>2011-02-01T16:33:22-05:00</xmp:ModifyDate>
         <xmp:CreateDate>2011-02-01T16:33:22-05:00</xmp:CreateDate>
         <xmp:CreatorTool>Adobe Illustrator CS5</xmp:CreatorTool>
         <xmp:Rating>5</xmp:Rating>
         <xmp:Thumbnails>
            <rdf:Alt>
               <rdf:li rdf:parseType="Resource">
                  <xmpGImg:width>256</xmpGImg:width>
                  <xmpGImg:height>256</xmpGImg:height>
                  <xmpGImg:format>JPEG</xmpGImg:format>
                  <xmpGImg:image>/9j/4AAQSkZJRgABAgEASABIAAD/7QAsUGhvdG9zaG9wIDMuMAA4QklNA+0AAAAAABAASAAAAAEA&#xA;AQBIAAAAAQAB/+4ADkFkb2JlAGTAAAAAAf/bAIQABgQEBAUEBgUFBgkGBQYJCwgGBggLDAoKCwoK&#xA;DBAMDAwMDAwQDA4PEA8ODBMTFBQTExwbGxscHx8fHx8fHx8fHwEHBwcNDA0YEBAYGhURFRofHx8f&#xA;Hx8fHx8fHx8fHx8fHx8fHx8fHx8fHx8fHx8fHx8fHx8fHx8fHx8fHx8fHx8f/8AAEQgBAAEAAwER&#xA;AAIRAQMRAf/EAaIAAAAHAQEBAQEAAAAAAAAAAAQFAwIGAQAHCAkKCwEAAgIDAQEBAQEAAAAAAAAA&#xA;AQACAwQFBgcICQoLEAACAQMDAgQCBgcDBAIGAnMBAgMRBAAFIRIxQVEGE2EicYEUMpGhBxWxQiPB&#xA;UtHhMxZi8CRygvElQzRTkqKyY3PCNUQnk6OzNhdUZHTD0uIIJoMJChgZhJRFRqS0VtNVKBry4/PE&#xA;1OT0ZXWFlaW1xdXl9WZ2hpamtsbW5vY3R1dnd4eXp7fH1+f3OEhYaHiImKi4yNjo+Ck5SVlpeYmZ&#xA;qbnJ2en5KjpKWmp6ipqqusra6voRAAICAQIDBQUEBQYECAMDbQEAAhEDBCESMUEFURNhIgZxgZEy&#xA;obHwFMHR4SNCFVJicvEzJDRDghaSUyWiY7LCB3PSNeJEgxdUkwgJChgZJjZFGidkdFU38qOzwygp&#xA;0+PzhJSktMTU5PRldYWVpbXF1eX1RlZmdoaWprbG1ub2R1dnd4eXp7fH1+f3OEhYaHiImKi4yNjo&#xA;+DlJWWl5iZmpucnZ6fkqOkpaanqKmqq6ytrq+v/aAAwDAQACEQMRAD8A9U4q7FXYq7FXjX5Feebr&#xA;zB55/M/T7md5FstaMlkjsxAgq9qOAP2RxtVJHvir2OaWKGJ5pXEcUal5HY0VVUVJJPYDFUs8reZt&#xA;J80eX7HX9IkaXTtQj9W3dlKNQEqQynoQykHFU1xV2KuxV2KuxV2KuxV2KuxV2KuxV2KuxV2KuxV2&#xA;KuxV2KuxV2KuxV2KuxV2KuxV2KuxV87WX5nXflz/AJyt8w+XNVncaP5gFja2kZJMcd19UgNu6hun&#xA;MsyNTqxHhir6JxV8a/8AOM+vHT/+cgdc0x2omsDUIBGdqywTG4U/MJE+KvoL/nIrzG2gfk55juY3&#xA;43F3ANPh8SbxxC9PcRO5+jFUN/zjFdC4/I7yy23KNbqJgDWhS8mUV9yADir1HFXYq7FXYq7FXYq7&#xA;FXYq7FXYq7FXYq7FXYq7FXYq7FXYq7FXYq7FXYq7FXYq7FWNfmR5vl8neSdU8zR2n146YkcrWvIp&#xA;zQyoj/EA1KKxNaYqmflrzFpPmTQrLXNImFxp1/Es0EgpWh6qwFaMpqrDscVfJP8AzmToFzpH5h6L&#xA;5qsy0P6RtVCzpsVurF/tBh0PpyR0+WKvpv8AKrz3a+efIeleYoivr3EQS/iX/dd1F8EyU7DmKr/k&#xA;kHFXxubweS/+coprq5b0Le18yStLIx+za3k7VYn/AIwT1xV9E/8AOX9rJN+Tk0iEhbbULWWQDupL&#xA;R7/7KQYqq/8AOI1z635MWcdVP1a8u4vh6isnqfF7/vPuxV61ea3pNnqNhpt1dRw3+qNKunWzGjzG&#xA;CMyy8B34IKnFUbirsVdirsVdirsVdirsVdirsVdirsVdirsVdirsVdirsVdirsVdirsVdirsVS7z&#xA;HoVjr+gajod8CbPU7aW1np1CTIUJX3Faj3xV8ZflZ+ZHmD8kPzD1Hyd5n5voH1r0dShHJhE3+672&#xA;3XrxdCrMAPiSncDFX0N/zkR5Lg8+/lJc3Gllbu609V1fSZYSHEqohLqhU/EJIXbjTqaYq8G/5xB/&#xA;MwaF5tm8n38nHTfMLBrMsfhjvkWi/wDI5Bw/1ggxVL/+cwvLTaZ+aw1VFpBrtlDcF+3rQD6u6/Qk&#xA;aH6cVeped/Nh82/84cS6zO3q3v1ewgu3bdvrFtqMEEjmv7T8OX+yxVG/84V36y/lpqtmWrJa6vK3&#xA;HbZJbeAr7/aVsVSPzvr97qX/ADmJ5Y0uKWkWiLFAsZ+yDNbPczGm/wATRygfQMVfT2KuxV2KuxV2&#xA;KuxV2KuxV2KuxV2KuxV2KuxV2KuxV2KuxV2KuxV2KuxV2KuxVgnkr85fJ/mjWLzy8JW0zzPp80tv&#xA;daLe0SYvCxVzC1eMq7E/CeVNyoxV5b/zl9+VLaxocXnnSoOWoaOnp6siDeSyrUSmm5MDHf8AyST0&#xA;XFWF/wDOLH57foe7h8h+Zbmmk3T8dEvJDtbzOf8AediekcjH4f5W9jsqwb8//wAv7v8ALb8zzeaR&#xA;ytdNvpRqmhTxjiIZFkDvEh6VglpxHZSuKvT/AM6NUsfzZ/IHSvP1gijVfL1wE1e3XdoTKFiuUHfi&#xA;XMUq/wCR19lWE/k3rra5+Tv5ifl3Mecy2L65pURoSxtikkyLXvyhjZQPEnFWW/8AOD+uqmqeaNBd&#xA;/ingt7+FPAQO0UpH/I+PFUrbUOX/ADmn65Bb/coLehO+1l6APyGKvsjFXYq7FXYq7FXYq7FXYq7F&#xA;XYq7FXYq7FXYq7FXYq7FXYq7FXYq7FXYq7FXYq8C/wCclvyQOv2L+ePKsLw+btMCy3CWoIlu4o6U&#xA;ZeFD68QFVYbkDjueNFWI/kt/zlXFNFH5X/MpleKRfQh16ReSsCOPp3ynqCNjJ/wQ6tiry78//wAn&#xA;JPIevpqWkD6x5O1k+tpN3GfUSIsOZt2cV6DeM/tJ4kNirMfLHmy3/Of8uH/LvzFMP8eaPGbnynqU&#xA;rfFeGFCTA7n/AHYY14sSfiFG3KmqrAPyU/MK28p69e6J5h5Hyh5lhfTPMFua/ulkBjW4C9eUXI17&#xA;8Se9MVQej3d9+VH5uxtOy3SaNdmK6Me8d1YTLxZkFaFZraTklfEYqy38rr61/Lb/AJyNisTODo09&#xA;0+nx3Ab4ZLLUFDWUpb+Vg8MhPh9+KpxrIFh/zmZGBGfj1q0PFtj/AKTBGeW46fvKjFX2jirsVdir&#xA;sVdirsVdirsVdirsVdirsVdirsVdirsVdirsVdirsVdirsVdirsVfPX/ADkV+c/5k/lt5y0Y6Slr&#xA;L5cvrX1BFcQ8vVnikInQyBlccUaMin83fFXzF+anmHyl5l8zN5j8u2cumHVU9fVdLkClIb0n96YZ&#xA;F2eOT7VSAeVdhtiqP8n/AJv6tpXlfUfJmuRnW/J+owPENPmb95aSkco57R2rwMclH4fZr4E1xVgd&#xA;rdXNpcxXVrK8FzA6yQTxsUdHQ1VlYUIIIqCMVbu7qe7upru4bncXEjSzPQDk7ksxoAAKk9sVWz3E&#xA;9w4knkaVwiRhnJYhIkEaLU9lRQoHYDFU21/zG2sWujerF6d/pdmunyXKn++igdjbsR2eONhF/qov&#xA;euKvS/OOvC6/OjyN50kI5avDoGrXDnoZYGjt5vCvGS1ZfoxV934q7FXYq7FXYq7FXYq7FXYq7FXY&#xA;q7FXYq7FXYq7FXYq7FXYq7FXYq7FXYq7FWCfnR+W+j+fvJF1pV/NHZXNufrOm6lKQFguFFAXY/7r&#xA;cHi/sa9QMVfnz5k8u6r5c1y70TVohDf2bBZkVlkUhlDoyupKsrowZSOxxVLMVdirsVdirsVTG61y&#xA;9udN0yxkbbSfVWzlBIZY5ZPW4CnZZWdx7scVfpj5Y1mPXPLelazFT09Ss4LtQNwBPGslP+GxVMsV&#xA;dirsVdirsVdirsVdirsVdirsVdirsVdirsVdirsVdirsVdirsVdirsVfMn/Oblj5gfRfLd7A0h0G&#xA;CaeO9jUngtzIqGB5AOvwrIFJ6fTir5GxV2KuxV2KuxV2KuxV90/84lec49e/KyHSZJA1/wCXZms5&#xA;VJq3oSEy27H24syD/UxV7XirsVdirsVdirsVdirsVdirsVdirsVdirsVdirsVdirsVdirsVdirsV&#xA;dirFfzRu/Jtn5B1i58524uvLccS/XoOPNn5OqRhACpDmRl4EEUahqMVfnn52TyWvmGc+TZb2TQnA&#xA;aBdRREnjY/ajrG7h1Xsxoe1NqlVIcVdirsVdirsVdirNPys/NXzL+XOvnU9HdXt7jhHqVjIAY54U&#xA;flx/yWG/FhuK/MYq/RHQNc03XtEsda0yX1tP1CFLi2k6EpIKio7MOhHY4qj8VdirsVdirsVdirsV&#xA;dirsVdirsVdirsVdirsVdirsVdirsVdirsVdiqQ+fPJ2n+c/KGqeWdQZo7bUovTMqbtG6MJIpANq&#xA;8JEVqd6Yq/Obzx5Q1Hyf5r1Hy3qMkUt3p0vpvLCwZHUgOjDw5KwPE7jocVSLFXYq7FXYq7FXYq7F&#xA;X1P/AM4c/mnxkn/L3U5vhfnd6EznoftT24+f94v+yxV9W4q7FXYq7FXYq7FXYq7FXYq7FXYq7FXY&#xA;q7FXYq7FXYq7FXYq7FXYq7FXYq+Ev+cofyy1vyz+YF/5haNptC8w3DXNtegfClxJV5LeQ/suCCy/&#xA;zL06NRV4xirsVdirsVdirsVdiqN0bV9R0bVrPVtNma3v7GZLi2mXqskZ5KffpuO+Kv0f/LTz3p/n&#xA;ryXp3mSzopuo+N3bg19G5T4ZYj3+FunitD3xVlGKuxV2KuxV2KuxV2KuxV2KuxV2KuxV2KuxV2Ku&#xA;xV2KuxV2KuxV2KuxV4T/AM5jaXY3f5VRXc95HbXGn6hDNawSHe4Z1aJoox1LBZPU+SnFXxDirsVd&#xA;irsVdirsVdirsVe9/wDOJP5oDy35wfyrqM3DSPMTKtuWPwxX6ikR9vWH7s+/DwxV9s4q7FXYq7FX&#xA;Yq7FXYq7FXYq7FXYq7FXYq7FXYq7FXYq7FXYq7FXYq7FXhH/ADl5+X9z5h8gw+YLSVhceWGknlti&#xA;1Ektp+CysB05x8FYf5PL2xV8RYq7FXYq7FXYq7FXYq7FVyO6OroxV1IKsDQgjoQcVfoH/wA47/md&#xA;J5+/L6C5vnDa5pbCx1U13kdFBjnP/GVNz/lBsVen4q7FXYq7FXYq7FXYq7FXYq7FXYq7FXYq7FXY&#xA;q7FXYq7FXYq7FXYqxz8xfJsHnTyTq3liedrVdShCJcKKlJEdZI2IqOSh0HIV3G2Kvzn83eU9b8pe&#xA;Yr3y/rcHoahYvxkUGqspHJHRh1V1IYHFUmxV2KuxV2KuxV2KuxV2Kvcv+cRvPcfl78yG0W7l9Ow8&#xA;yxC1FTRReRktbE/61XjHuwxV9xYq7FXYq7FXYq7FXYq7FXYq7FXYq7FXYq7FXYq7FXYq7FXYq7FX&#xA;Yq7FXw1/zlj+X+qaD+ZFz5iKvLo/mIrNb3LHlwnSNUlgJJqKceS9uJAHQ4q8QxV2KuxV2KuxV2Ku&#xA;xV2KqkE80E0c8DtFNEweKRCVZWU1VlI6EHFX6J/kh+Yo8/8A5eafrcpH6TirZ6sq0oLqEDm1B0Ei&#xA;ssgHblTFWe4q7FXYq7FXYq7FXYq7FXYq7FXYq7FXYq7FXYq7FXYq7FXYq7FXYq81/Pj8oLf8yvKa&#xA;2sLLDr+mlptGuZCVQM/ESRSEBjwkCDoNiAfbFXxN+YP5See/ID23+JdPFvBeF1tbqKSOaJ2joWHJ&#xA;CSpoejAE9sVYdirsVdirsVdirsVdirsVe7f84ofmtB5T82y+XNVlEejeYmjSOZjRYbxfhiY+CyV4&#xA;MfHiegxV9vYq7FXYq7FXYq7FXYq7FXYq7FXYq7FXYq7FXYq7FXYq7FXYq7FXYq7FXzD/AM5s+a7m&#xA;DS9B8rJbqbe9kfUJrp1Bblb/ALpI4yfs/wB6SxG/QdCcVfJOKuxV2KuxV2KuxV2KuxVsEg1GxGKv&#xA;vj/nGj80JPPPkBIdRm9XX9DK2eoMxq8kdP3E7e7oCrHuyscVet4q7FXYq7FXYq7FXYq7FXYq7FXY&#xA;q7FXYq7FXYq7FXYq7FXYq7FXYqxD81vy/sfPfkjUdBnhha8kiZ9LuJwaQXag+lIGX4l32anao36Y&#xA;q/O3zL5b1ny1rt5oWtW5tdTsH9O5gJDUJAZSGUkFWVgykdQcVSzFXYq7FXYq7FXYq7FXYq9T/wCc&#xA;cPzEHkr8y7KS6l9PR9X/ANx+pEn4VWUj0pTXYenLxJPZeWKv0BxV2KuxV2KuxV2KuxV2KuxV2Kux&#xA;V2KuxV2KuxV2KuxV2KuxV2KuxV2Kvlv/AJy2/JcSxX/5n2N4FaFLaLVtPkU/H8aWscsLjuOSBlYd&#xA;BWvbFXyfirsVdirsVdirsVdirsVdir7+/wCcbfzMXzv+Xdsl1Lz1zRAljqYY1Zwq/uJz/wAZI13P&#xA;8wbFXq2KuxV2KuxV2KuxV2KuxV2KuxV2KuxV2KuxV2KuxV2KuxV2KuxV2KoTV9J03WNMudL1O3S7&#xA;0+8jaG5tpBVXRhQg/wBR0xV+dX5x+S7XyZ+ZGteXrKOaPT7WRWsfXPNzDLGsinnxXkPiIHyoanFW&#xA;F4q7FXYq7FXYq7FXYq7FWa/lN+aOtflx5qj1rT1FxbSr6OpWDmiTwEgla78XUiqN2PiKgqvvH8uf&#xA;zU8nfmBpX17y/eB5owDeafLRLmAntJHXp4MtVPjirLsVdirsVdirsVdirsVdirsVdirsVdirsVdi&#xA;rsVdirsVdirsVdirsVY75t/LryP5vEX+JNFttTeAcYZpUpKincqsqlXC13pWmKvzf8zWstp5j1W1&#xA;mthZSwXk8b2ajiIWWVgYwN6BOmKpbirsVdirsVdirsVdirsVTXyz5o17yxrVvrWhXkljqNsaxzRn&#xA;qD1VlOzK3Qqdjir6a8t/85u2osEj8yeXJDfotJLjT5V9KRgPtelLQx1Pbm38MVQXmH/nN+/eNo/L&#xA;vliKB/2bjULhph9MMSxf8nMVeSeZf+ch/wA4dfmLz+ZLmwjrVINNb6kqitacoOEjf7JjiqW6N+dP&#xA;5saPOk1l5s1M+n9mK4uHuofH+6uDLH/wuKve/I//ADmrbubWz856KYtlS41awfktenqNasAQO7cX&#xA;PsvbFX07YX9nqFjb39lMtxZ3caT206GqvHIoZGU+BU1xVXxV2KuxV2KuxV2KuxV2KuxV2KuxV2Ku&#xA;xV2KuxV2KvF/z7/5x7g/MRrHUtGe10zWrUy/XJ2jCm7jZBwWR0FS6ugClugY/LFXwxc281tcS206&#xA;8JoHaOVKg0ZDRhUbbEYqpYq7FXYq7FXYq7FXYq7FXYq7FXYq7FXoOkeWPI+peWRdy2PmTTroqVXW&#xA;lgjvtJMqjo4jiglReQIJVnI8D0xV9t/kfZahZflJ5VttQj9K5TT4iU5B6I9Wj3HjGy7dumKs4xV2&#xA;KuxV2KuxV2KuxV2KuxV2KuxVRvLyzsraS7vJ47a1hHKWeZ1jjRfFmYgAfPFUvsPN3lTUJDHYa1YX&#xA;kg6pBcwykV9kY4qm2KuxV2KpN500vVdV8oa1pmkXP1PVL2yngsrqpX05pIyqNyX4l+I/aG464q/P&#xA;jU/yW/NnTbqS2ufKOqs8RIeSC1luIdu4mhEkZHvyxVheKuxV2KuxV2KuxV2KuxV2KuxVOfKPlDzB&#xA;5u1630LQLRrzULk/Cg2VEH2pJGOyIvcn9eKvtH8tP+cV/wAvvLFjHN5gtYvMmtsAZ5rpeVqhPVIr&#xA;dvgKj+aQEn26Yq9ltbW1tLaO1tIUt7aFQkMEShERRsFVVAAA8BiqrirsVdirsVdirsVdirsVdirs&#xA;VdirsVee/n3aeUb78r9XsPNGqQ6PZ3SqLS9mqeN3GfVhCIoZ5Dyj3VAWK1xV+dxABIBqB3HQ/fiq&#xA;Ls9Z1eyAFnfXFsACAIZXj2JqR8JHfFU6g/M78ybcEQebNZhDfaEeoXS1p40kxVNIPzz/ADggJKeb&#xA;tSJOx5ztIPoD8sVR8H/OR352QhQnmq4ITcc4reQ9a7l4mr9OKtav/wA5GfnTq9jLY3vmeb6tMpSQ&#xA;W8NrbOVYUI9S3iifp/lYq83xV2KuxV2KuxV2KuxV2KuxV2KvoP8A5xY/ODyV5OubrQvMFpDp76pI&#xA;GTzJv2FFguSxPCMHdWXYE/EP2sVfZVjf2OoWsd5YXMV3aSisVxA6yRsPFXQlT9GKq+KuxV2KuxV2&#xA;KuxV2KuxV2KuxV2KuxV2KvHP+cpD+Xs/5cyWXmvUPqV9zNzoKwj1Ll7uJCoCxbcoyH4uSQor1Bpi&#xA;r4OxV2KuxV2KuxV2KuxV2KuxV2KuxV2KuxV2KuxV2KuxVlHkf8zfO/ke8+s+W9Uls1Zg01oT6ltL&#xA;/wAZIWqh22rSo7EYq+wPyh/5yg8o+cks9J1500XzRMfS9Fqi0nkrRfRlYniX7I5rXYFtsVe2Yq7F&#xA;XYq7FXYq7FXYq7FXYq7FXYq7FXy3/wA5p6P5Tkj0rVpdX9HzRDGLe30YD1PXtWkLGU03i4MW+Jtm&#xA;6DcYq+T8VdirsVdirsVdirsVdirsVdirsVdirsVdirsVdirsVdirYJBqNiMVfRf5Nf8AOWWqaClt&#xA;oXngSano6cY4NWT47uBRsPVB/v0Hj9sf5WwxV9c6Fr2ja9pVvq2jXkV/p10vOC5hbkrDuPEEHYg7&#xA;g7HFUfirsVdirsVdirsVdirsVdirsVfBf/OVfl+70n84L+e5u5LwavBFfwtIpUxxtyhWFTWjLH6N&#xA;AR298VeP4q7FXYq7FXYq7FW1VmYKoLMxoqjcknFXvPlX/nDr8x9Xs7e91O8stFhuEWT6vMZZbpA4&#xA;Bo8SqEU77gyVGKs90r/nB7RkAOq+ari4P7S2tqkFDToGkknrv3pirzX8yv8AnGHU/I9tcaxf+Z9K&#xA;h8vCb0rSW5N0LuQtUpGIIYJVaTivZ6eJAxV4rMsSyssTmSMH4XZeJP0Van34qsxV2KuxV2KuxV2K&#xA;uxV2KuxVmH5dfmv51/L7UTd+Xr3hBKQbrTpqyWs9Nv3kdRv4MpDe+Kvq78rv+csfKPmy9ttH162b&#xA;QNZuWEcLs4ks5ZCaBRLRWjZuwcU7cq4q92xV2KuxV2KuxV2KuxV2KuxV4B/zmL5PuNV8hW2v262i&#xA;LoU3O9mmWlyYpysSJDIAdjK45Ieux7Yq+KsVdirsVdirsVdir62/5xl/5x3exNt55842vG9+GbQt&#xA;LlFDD3FzMh/b6GNT9n7R+KnFV9PYq7FUg86eQ/KnnXSRpXmWwW/s0f1YlLOjRycSvNHQqymjHvir&#xA;45/NH/nFnz35d1e9n8r6fPrnloEPayxNHJdopFSkkK8ZHZTUVRDUb7dMVeKT289vPJBcRtDPExSW&#xA;KRSrqymhVlNCCD2xVTxV2KuxV2KuxV2KuxV2KuxV2Kvefyk/5yu80+Vlt9J80q+vaDGAiTEj69Ag&#xA;6BHYgSqP5ZDXwYDbFX155N8++UfOemDUfLepQ38FB6qIaTRE/syxNR4z/rDfttiqf4q7FXYq7FWI&#xA;fmV+aPlX8vdDfU9buAZmBFlp0ZU3Fw/8sak9B+0x2H4Yq8x/Kr8+PzB/NHzjawaRoFvo/lfTgZPM&#xA;F1LI9078lYRRRScIFVmbcLxJoK1psVXvuKoHXNC0fXtLn0rWbOK/065AWe1nUMjUII28QRUEbg4q&#xA;8J88f84beStXuZLvyzfS+X3MZAseJubYyAHiQXf1UBP2viPsMVeRN/zhz+bwuWiDaY0YrS4Fy/A/&#xA;IGLn/wALirCr38hvzftdQmsT5Vv5nhlaL14YWeByGpySUDiUPUN4YqxS98seY7G8msrzS7uC7tyy&#xA;zwSQSK6FKlqgjtTFUtVWZgqgszGiqNyScVfXX/OPf/OMcemi083+eLfnqXwz6Zokg+G3PVZblT9q&#xA;ToVT9jv8WyqvpnFXYq7FXYq7FXnn5n/kb5G8/wBrdS31nHa6/LCIrbXIlPrRspBQuoZVlG3Gj/s7&#xA;AjFXx9+Zn/OO/wCYfkMi4mtv0xpBQyNqenJJJHEFO4uFKhojTep+H/KrUBV5firsVdirsVdirsVd&#xA;irsVdirsVRFjqF/p9yl1YXMtpdR/Yngdo5F+TIQRir6p/wCcbvzu8mabpk2leafNmotqt7IhjGts&#xA;z2kLAEMsFyXlCqxNT6nAfxVfUSOkiLJGwdHAZHU1BB3BBGKuZlVSzEKqirMdgAO5xV8u/wDOTP8A&#xA;zkPAlsvlHyNqxNyzE6zq1jJQIq7C2hmQ/aY7yFDsBxruwCr5+8j+SvOX5nebY9NsnlvLyWj32pXT&#xA;vIsEINGlmkYk0HYVqTsMVfoD+X/kPQfIvle18vaLHxt4BymnanqTzMBzmkI/aan0DYbDFWR4q7FX&#xA;Yq7FXYq4gEUO4PUYqwmw/JX8rNP8zf4ms/LlrDrIcyJOvP00kO/NLct6CNXcMqAjFWbYq7FXYq7F&#xA;XYq7FXYq0yqylWAZWFGU7gg9jir5v/ND/nDvR9Wnl1PyNdR6RdysXl0u65mzZmNSYnUO8P8Aq8WX&#xA;w4jFXj93/wA4mfnRbx3Drp1tOIFLKIrqItLQVpGGKmv+tTFXl2seW/MOizNBrGmXWnTIeLJdQyQk&#xA;H/ZgYqluKtgEgkCoG59h0xVrFXYq7FXYqviilllSKJGklkYLHGoLMzMaAADcknFWnR43KOpR1NGV&#xA;hQg+BBxVnvlf8ifzR80+XI/MWgaQt9pkzOsTpdWquTGxV/3byq4oy9CK+ApirJvLVz/zlR5Jtzpe&#xA;h6f5ht7SOoS2/Rz30CVO/pCWG4jUV/kxVU1Hy/8A85T/AJhP9U1a01yaCQ0e3vFOm2vzaKQW0J/4&#xA;HFWd+Rf+cKrtpYrrztrCRwg1bTdMqzsOtHuJFAX3CofZsVfSvlHyV5W8oaSuleXNOi06yU8mWMEv&#xA;I3TnLIxZ5G92JOKp3irsVdirsVdirsVdirsVdirsVdirsVdirsVdirsVdirsVdirF/NH5Xfl75q4&#xA;HX9As72RPsTmP05gK1p6sfCSle3KmKpUPyJ/KhPL2o6Bb+XoLfT9U4fW/TaQTFojyjYTMzSAoxqN&#xA;6YqwW1/5wz/KWG7E8lzq91ECSbWW5hERB7Vjgjk2/wBfFUrg/wCcJ/Iy6q882u6jJpnPlFZKIUkC&#xA;/wArT8W5fMIMVTvzX/ziH+VmradFBoyXGgXsCcEu4ZHuFk95o52bl/sWU/RirG/Kf/OFmgWUt8fM&#xA;utPq0M9u0NmltCbVoZGIIn5GSWrLTZaU8a4q8a86/kv+Yn5Uea7TWrazk1XS9Mu4r3T9Yto2eKsE&#xA;gkQXCLyaFqqK8tvAnFX2jrfkjyL550u3uNf0O2v1uYUkjknjAuER1DBVmXjKnX9lhiqV+Q/yY8o+&#xA;RNVuL7yzNf2lvdKVn0trlpbNiSKP6cgZua0oG5VptirPMVdirsVdirsVf//Z</xmpGImg:image>
               </rdf:li>
            </rdf:Alt>
         </xmp:Thumbnails>
      </rdf:Description>
      <rdf:Description rdf:about=""
            xmlns:xmpMM="http://ns.adobe.com/xap/1.0/mm/"
            xmlns:stRef="http://ns.adobe.com/xap/1.0/sType/ResourceRef#"
            xmlns:stEvt="http://ns.adobe.com/xap/1.0/sType/ResourceEvent#">
         <xmpMM:InstanceID>xmp.iid:FE7F1174072068118083BC5B1C6C9DA3</xmpMM:InstanceID>
         <xmpMM:DocumentID>xmp.did:FE7F1174072068118083BC5B1C6C9DA3</xmpMM:DocumentID>
         <xmpMM:DerivedFrom rdf:parseType="Resource">
            <stRef:instanceID>xmp.iid:FD7F1174072068118083BC5B1C6C9DA3</stRef:instanceID>
            <stRef:documentID>xmp.did:FD7F1174072068118083BC5B1C6C9DA3</stRef:documentID>
            <stRef:originalDocumentID>uuid:500013331149DD11A7DCDFB538BECC16</stRef:originalDocumentID>
         </xmpMM:DerivedFrom>
         <xmpMM:OriginalDocumentID>uuid:500013331149DD11A7DCDFB538BECC16</xmpMM:OriginalDocumentID>
         <xmpMM:History>
            <rdf:Seq>
               <rdf:li rdf:parseType="Resource">
                  <stEvt:action>saved</stEvt:action>
                  <stEvt:instanceID>xmp.iid:FD7F1174072068118083BC5B1C6C9DA3</stEvt:instanceID>
                  <stEvt:when>2011-02-01T16:32:15-05:00</stEvt:when>
                  <stEvt:softwareAgent>Adobe Illustrator CS5</stEvt:softwareAgent>
                  <stEvt:changed>/</stEvt:changed>
               </rdf:li>
               <rdf:li rdf:parseType="Resource">
                  <stEvt:action>saved</stEvt:action>
                  <stEvt:instanceID>xmp.iid:FE7F1174072068118083BC5B1C6C9DA3</stEvt:instanceID>
                  <stEvt:when>2011-02-01T16:33:22-05:00</stEvt:when>
                  <stEvt:softwareAgent>Adobe Illustrator CS5</stEvt:softwareAgent>
                  <stEvt:changed>/</stEvt:changed>
               </rdf:li>
            </rdf:Seq>
         </xmpMM:History>
      </rdf:Description>
      <rdf:Description rdf:about=""
            xmlns:photoshop="http://ns.adobe.com/photoshop/1.0/">
         <photoshop:ColorMode>3</photoshop:ColorMode>
         <photoshop:History/>
      </rdf:Description>
      <rdf:Description rdf:about=""
            xmlns:xmpTPg="http://ns.adobe.com/xap/1.0/t/pg/"
            xmlns:stDim="http://ns.adobe.com/xap/1.0/sType/Dimensions#"
            xmlns:xmpG="http://ns.adobe.com/xap/1.0/g/">
         <xmpTPg:HasVisibleOverprint>False</xmpTPg:HasVisibleOverprint>
         <xmpTPg:HasVisibleTransparency>False</xmpTPg:HasVisibleTransparency>
         <xmpTPg:NPages>1</xmpTPg:NPages>
         <xmpTPg:MaxPageSize rdf:parseType="Resource">
            <stDim:w>638.889160</stDim:w>
            <stDim:h>608.333008</stDim:h>
            <stDim:unit>Pixels</stDim:unit>
         </xmpTPg:MaxPageSize>
         <xmpTPg:PlateNames>
            <rdf:Seq>
               <rdf:li>Cyan</rdf:li>
               <rdf:li>Magenta</rdf:li>
               <rdf:li>Yellow</rdf:li>
               <rdf:li>Black</rdf:li>
            </rdf:Seq>
         </xmpTPg:PlateNames>
         <xmpTPg:SwatchGroups>
            <rdf:Seq>
               <rdf:li rdf:parseType="Resource">
                  <xmpG:groupName>Default Swatch Group</xmpG:groupName>
                  <xmpG:groupType>0</xmpG:groupType>
               </rdf:li>
            </rdf:Seq>
         </xmpTPg:SwatchGroups>
      </rdf:Description>
      <rdf:Description rdf:about=""
            xmlns:pdf="http://ns.adobe.com/pdf/1.3/">
         <pdf:Producer>Adobe PDF library 8.00</pdf:Producer>
      </rdf:Description>
   </rdf:RDF>
</x:xmpmeta>
                                                                                                    
                                                                                                    
                                                                                                    
                                                                                                    
                                                                                                    
                                                                                                    
                                                                                                    
                                                                                                    
                                                                                                    
                                                                                                    
                                                                                                    
                                                                                                    
                                                                                                    
                                                                                                    
                                                                                                    
                                                                                                    
                                                                                                    
                                                                                                    
                                                                                                    
                                                                                                    
                           
<?xpacket end="w"?>
	</metadata>
<g>
	<path display="none" fill-rule="evenodd" clip-rule="evenodd" fill="none" d="M43.377,63.844c103.677,0,207.364,0,311.04,0
		c0,104.398,0,208.804,0,313.2c-103.756,0-207.525,0-311.28,0c0-104.162,0-208.318,0-312.479
		C43.117,64.224,43.098,63.885,43.377,63.844z M85.138,64.564c-0.003,0.317-0.42,0.219-0.48,0.479
		c-4.689,17.882,1.655,37.398,6.96,50.4c1.281,3.139,3.538,5.78,3.12,9.36c-4.619-5.221-8.079-11.601-12-17.52
		c-3.95-9.09-9.132-16.947-12.48-26.64c-2.053-1.627-1.723-5.637-4.32-6.72c-1.086,2.787-0.875,5.88-0.48,8.4
		c1.892,12.084,7.731,22.013,12.72,31.2c2.261,4.163,5.31,7.208,5.04,12c-10.416-10.544-18.833-23.087-29.04-33.84
		c-0.891-1.509-1.566-3.234-3.36-3.84c-0.294,7.858,3.895,12.588,6.72,17.76c3.046,5.575,6.478,10.446,10.32,15.12
		c1.819,2.212,5.038,4.592,4.08,8.16c-4.472-3.659-9.104-7.005-13.68-10.56c-4.542-3.528-9.191-7.238-14.64-9.84
		c0.41,5.126,5.785,7.323,7.68,11.76c2.946,2.254,5.097,6.583,6.72,9.36c-4.444-0.154-6.788-5.85-11.52-3.36
		c0.765,4.661,3.524,8.972,6.48,12.24c1,1.105,3.478,1.968,2.4,4.08c-3.171-1.762-6.896-0.15-7.439,2.4
		c-0.579,2.709,1.197,4.758,2.16,6.72c1.344,2.74,6.229,3.943,6.72,6.24c-1.095,0.825-3.615,0.226-5.04,0.72
		c-3.748,4.756,1.98,8.343,4.32,11.28c-4.287,3.729,0.857,8.698,3.36,10.8c-1.752,2.815,0.407,5.528,1.44,7.68
		c-1.154,1.486-2.614,2.666-3.12,4.8c1.046,2.053,2.591,4.246,3.84,6.72c-3.427,3.833,2.305,6.892,4.08,9.84
		c0.042,1.402-1.201,1.519-1.2,2.88c1.274,2.646,1.778,6.062,5.04,6.72c-4.73,1.781,1.375,4.188,1.44,6.96
		c1.696,0.784,4.041,0.92,6,1.44c1.112,1.208,1.608,3.031,2.64,4.319c-0.994,2.03-3.367,3.788-2.64,6.72
		c0.318,1.282,3.032,2.126,3.84,4.32c0.289,0.786-0.079,1.33,0.24,1.92c0.735,1.363,2.943,2.123,3.6,3.601
		c0.589,1.323,0.216,2.845,0.72,3.84c1.119,2.209,3.291,2.425,4.561,3.84c-1.049,4.023,2.227,5.762,4.56,7.2
		c-1.643,5.486,3.517,9.118,9.36,7.2c-2.743,2.879-1.896,9.339,2.64,9.6c0.377,1.863,0.941,3.539,2.16,4.56
		c1.486,0.2,1.582-2.25,2.4-1.92c-1.062,2.158,1.41,3.278,1.44,4.801c0.028,1.391-1.997,2.519-2.16,3.84
		c-0.655,5.304,5.076,6.225,10.8,5.52c-0.064,0.864,0.443,1.157,0.48,1.92c-1.854,2.664-6.405,2.36-10.8,2.16
		c-13.366-0.607-28.612-1.281-40.8-2.64c-3.376-0.376-7.332-1.698-10.08,0.479c0.451,2.829,1.997,4.562,3.36,6.48
		c-1.252,1.422-3.969,1.358-4.32,3.12c-0.443,2.223,2.596,3.903,3.6,5.76c-1.81,1.867-6.263,2.823-5.52,6.24
		c0.354,1.627,2.452,2.245,3.6,3.6c-1.899,2.581-5.568,3.393-6,7.44c0.406,1.113,1.777,1.262,2.16,2.399
		c-1.292,3.204,1.41,5.307,3.6,6.48c-3.74,0.044-1.74,4.825,0.96,3.6c-0.564,1.116-0.989,2.371-1.2,3.84
		c0.753,1.566,3.056,1.584,5.04,1.92c1.217,1.377,3.346,2.736,6,1.921c1.056,3.312,8.427,2.159,11.52,1.92
		c0.411,0.709,0.355,1.884,1.44,1.92c2.455,0.462,6.097,0.229,8.16-0.48c1.307,2.383,5.21,1.938,8.4,1.44
		c1.677,1.436,3.872,3.445,6.24,3.12c2.223-0.306,4.891-3.968,6.72-5.521c5.176-4.396,8.992-7.802,12.96-12.479
		c2.118-2.498,4.512-4.471,6-6.961c5.666-1.534,12.316-2.084,18.48-3.119c1.26,4.097,10.584,1.756,13.68,1.439
		c-3.059,1.589-8.544,2.006-8.16,6.24c3.406,0.674,6.064,2.096,7.2,5.04c4.433,1.087,8.628,2.412,11.28,5.28
		c1.059,0.255,1.855-0.475,2.4,0c1.162,2.198,2.79,3.93,6.24,3.84c0.929,2.405,3.574,2.34,5.52,3.6c0.85,0.551,1.087,1.737,1.92,2.4
		c0.67,0.534,2.109,1.011,3.12,1.68c3.508,2.319,7.278,3.747,13.2,2.641c3.021,3.218,9.365,3.114,15.12,3.6
		c2.011,1.523,6.897,2.615,10.08,1.439c1.665-0.614,1.683-2.503,3.36-2.159c-0.692,3.293,4.775,4.622,8.64,4.079
		c1.237-0.173,2.105-1.027,3.12-0.959c1.178,0.078,2.264,1.518,3.6,1.68c3.64,0.439,8.338-1.946,9.601-2.641
		c3.413,1.576,12.622,6.99,13.92,0c4.145,2.815,7.074,6.846,12.96,7.92c1.455-3.284-2.611-7.068-1.2-10.319
		c5.421,0.456,11.775,4.497,17.52,3.84c-0.854-2.425-4.479-2.081-4.56-5.28c3.312-1.604,7.886,0.344,11.04,0.721
		c2.845,0.34,6.487,0.221,9.36,0c3.297-0.254,7.318-1.726,10.56-2.881c4.114-1.465,9.903-4.383,12.479-6.96
		c3.305-3.304,6.167-7.155,9.12-10.56c0.976-1.123,2.932-2.673,1.44-4.32c-2.542,0.386-3.15,2.703-6.48,1.681
		c-3.335,2.344-5.254,6.105-11.039,6c-2.907,0.919-3.323,4.356-5.521,6.239c-2.469,2.117-9.008,4.614-12.96,5.04
		c-6.245,0.673-8.111-2.089-12-4.08c-2.801-1.434-5.899-1.815-7.92-3.84c2.101-0.091,4.011,0.242,4.32-1.2
		c0.545-2.541-4.381-2.024-5.28-2.159c-4.533-0.68-8.578-3.879-12.48-6.24c-1.727-1.045-3.491-1.969-5.04-3.12
		c-1.604-1.193-2.852-2.893-4.319-3.84c-2.626-1.696-5.68-2.552-8.4-4.08c-2.54-1.427-5.073-3.326-7.44-5.04
		c-2.391-1.732-4.936-3.312-7.439-5.04c-2.427-1.676-4.579-4.002-6.96-5.52c-0.783-0.5-1.87-0.467-2.64-0.961
		c-0.52-0.333-0.695-1.08-1.2-1.439c-3.226-2.297-7.019-3.681-10.32-5.521c-0.521-0.359-1.351-0.409-2.16-0.479
		c-2.165-1.915-4.529-3.63-6.479-5.76c4.035-3.612,7.662-8.26,13.199-10.801c1.343-0.615,2.957-0.606,4.32-1.199
		c0.866-0.377,1.634-1.405,2.641-1.681c2.215-0.606,4.71,0.565,7.199,0.721c-0.184-2.192,0.539-1.736,1.44-3.841
		c-0.72-1.751-0.171-3.867-0.72-5.52c-1.196-3.593-5.386-4.783-9.36-5.52c-2.113-2.721-8.732-3.638-12.96-3.12
		c-3.587,0.438-7.421,2.172-10.32,2.88c-6.32,1.542-11.249,2.6-15.84,0.24c-2.536-1.305-4.723-3.837-7.68-5.761
		c-3.018-1.962-5.908-3.986-7.44-6.239c-2.262-3.327-4.132-7.633-6.24-11.521c-2.127-3.923-3.886-8.224-5.76-12.24
		c-2.059-4.413-5.759-9.528-8.16-13.2c-1.286-1.966-1.721-4.035-2.64-6.24c-1.379-3.309-3.634-6.517-5.28-9.84
		c-1.712-3.458-2.674-7.317-4.32-10.8c-1.67-3.535-4.372-6.757-6.24-10.32c-5.709-10.891-12.533-21.901-18-32.16
		c-0.555-0.405-1.841-0.079-2.16-0.72c-7.386-13.299-8.246-32.947-8.4-52.08c-0.032-3.922,0.654-8.119-0.96-11.52
		c-1.904,1.364-2.854,4.34-3.36,6.96c-2.448,12.683-0.743,29.737,1.92,39.84c-3.146-3.383-3.624-8.027-5.04-13.2
		c-0.755-2.757-2.221-5.345-2.88-7.92c-1.196-4.669-2.461-10.147-3.12-15.36c-1.056-8.346-1.255-18.094-1.92-24.96
		c-0.213-2.196,0.364-5.196-1.2-6.24c-1.705,3.509-2.858,8.509-3.6,12c-0.9,4.235,0.275,8.767,0.48,13.44
		c0.094,2.139-0.144,4.373,0,6.48c0.711,10.431,5.435,19.932,7.2,26.64c-2.686-1.298-3.174-4.679-4.32-7.2
		c-2.419-5.323-4.694-10.704-6.72-16.32c-1.058-2.934-1.611-5.997-2.64-8.88c-0.999-2.799-2.15-5.21-2.64-8.16
		c-1.292-7.787-3.309-15.652-4.56-23.76C85.618,64.564,85.377,64.564,85.138,64.564z"/>
	<path fill-rule="evenodd" clip-rule="evenodd" d="M85.858,64.564c1.25,8.108,3.267,15.973,4.56,23.76
		c0.49,2.95,1.641,5.361,2.64,8.16c1.029,2.883,1.582,5.946,2.64,8.88c2.025,5.616,4.301,10.997,6.72,16.32
		c1.146,2.521,1.634,5.902,4.32,7.2c-1.766-6.708-6.489-16.209-7.2-26.64c-0.144-2.107,0.094-4.341,0-6.48
		c-0.205-4.673-1.38-9.205-0.48-13.44c0.742-3.491,1.895-8.491,3.6-12c1.564,1.044,0.987,4.044,1.2,6.24
		c0.665,6.866,0.864,16.614,1.92,24.96c0.659,5.213,1.924,10.69,3.12,15.36c0.659,2.575,2.125,5.163,2.88,7.92
		c1.416,5.173,1.894,9.817,5.04,13.2c-2.663-10.104-4.368-27.158-1.92-39.84c0.505-2.62,1.456-5.596,3.36-6.96
		c1.614,3.401,0.928,7.598,0.96,11.52c0.154,19.133,1.014,38.781,8.4,52.08c0.319,0.641,1.605,0.315,2.16,0.72
		c5.467,10.259,12.291,21.269,18,32.16c1.868,3.563,4.57,6.786,6.24,10.32c1.646,3.483,2.607,7.342,4.32,10.8
		c1.646,3.323,3.901,6.531,5.28,9.84c0.919,2.205,1.354,4.274,2.64,6.24c2.401,3.672,6.101,8.787,8.16,13.2
		c1.875,4.017,3.633,8.317,5.76,12.24c2.108,3.888,3.978,8.193,6.24,11.521c1.533,2.253,4.423,4.277,7.44,6.239
		c2.957,1.924,5.144,4.456,7.68,5.761c4.591,2.359,9.52,1.302,15.84-0.24c2.899-0.708,6.733-2.441,10.32-2.88
		c4.228-0.518,10.847,0.399,12.96,3.12c3.975,0.736,8.164,1.927,9.36,5.52c0.549,1.652,0,3.769,0.72,5.52
		c-0.901,2.104-1.624,1.648-1.44,3.841c-2.489-0.155-4.984-1.327-7.199-0.721c-1.007,0.275-1.774,1.304-2.641,1.681
		c-1.363,0.593-2.978,0.584-4.32,1.199c-5.537,2.541-9.164,7.188-13.199,10.801c1.95,2.13,4.314,3.845,6.479,5.76
		c0.81,0.07,1.64,0.12,2.16,0.479c3.302,1.84,7.095,3.224,10.32,5.521c0.505,0.359,0.681,1.106,1.2,1.439
		c0.77,0.494,1.856,0.461,2.64,0.961c2.381,1.518,4.533,3.844,6.96,5.52c2.504,1.729,5.049,3.308,7.439,5.04
		c2.367,1.714,4.9,3.613,7.44,5.04c2.721,1.528,5.774,2.384,8.4,4.08c1.468,0.947,2.715,2.646,4.319,3.84
		c1.549,1.151,3.313,2.075,5.04,3.12c3.902,2.361,7.947,5.561,12.48,6.24c0.899,0.135,5.825-0.382,5.28,2.159
		c-0.31,1.442-2.22,1.109-4.32,1.2c2.021,2.024,5.119,2.406,7.92,3.84c3.889,1.991,5.755,4.753,12,4.08
		c3.952-0.426,10.491-2.923,12.96-5.04c2.197-1.883,2.613-5.32,5.521-6.239c5.785,0.105,7.704-3.656,11.039-6
		c3.33,1.022,3.938-1.295,6.48-1.681c1.491,1.647-0.465,3.197-1.44,4.32c-2.953,3.404-5.815,7.256-9.12,10.56
		c-2.576,2.577-8.365,5.495-12.479,6.96c-3.241,1.155-7.263,2.627-10.56,2.881c-2.873,0.221-6.516,0.34-9.36,0
		c-3.154-0.377-7.728-2.325-11.04-0.721c0.08,3.199,3.705,2.855,4.56,5.28c-5.744,0.657-12.099-3.384-17.52-3.84
		c-1.411,3.251,2.655,7.035,1.2,10.319c-5.886-1.074-8.815-5.104-12.96-7.92c-1.298,6.99-10.507,1.576-13.92,0
		c-1.263,0.694-5.961,3.08-9.601,2.641c-1.336-0.162-2.422-1.602-3.6-1.68c-1.015-0.068-1.883,0.786-3.12,0.959
		c-3.864,0.543-9.332-0.786-8.64-4.079c-1.678-0.344-1.695,1.545-3.36,2.159c-3.183,1.176-8.069,0.084-10.08-1.439
		c-5.755-0.485-12.099-0.382-15.12-3.6c-5.922,1.106-9.692-0.321-13.2-2.641c-1.011-0.669-2.449-1.146-3.12-1.68
		c-0.833-0.663-1.07-1.85-1.92-2.4c-1.946-1.26-4.591-1.194-5.52-3.6c-3.451,0.09-5.079-1.642-6.24-3.84
		c-0.545-0.475-1.341,0.255-2.4,0c-2.652-2.868-6.847-4.193-11.28-5.28c-1.136-2.944-3.794-4.366-7.2-5.04
		c-0.384-4.234,5.101-4.651,8.16-6.24c-3.096,0.316-12.42,2.657-13.68-1.439c-6.164,1.035-12.814,1.585-18.48,3.119
		c-1.488,2.49-3.882,4.463-6,6.961c-3.968,4.678-7.784,8.084-12.96,12.479c-1.829,1.553-4.497,5.215-6.72,5.521
		c-2.368,0.325-4.563-1.685-6.24-3.12c-3.19,0.497-7.094,0.942-8.4-1.44c-2.063,0.71-5.705,0.942-8.16,0.48
		c-1.084-0.036-1.029-1.211-1.44-1.92c-3.093,0.239-10.464,1.393-11.52-1.92c-2.654,0.815-4.783-0.544-6-1.921
		c-1.984-0.336-4.287-0.354-5.04-1.92c0.21-1.469,0.636-2.724,1.2-3.84c-2.7,1.226-4.7-3.556-0.96-3.6
		c-2.189-1.174-4.892-3.276-3.6-6.48c-0.383-1.138-1.754-1.286-2.16-2.399c0.432-4.048,4.101-4.859,6-7.44
		c-1.148-1.354-3.246-1.973-3.6-3.6c-0.743-3.417,3.71-4.373,5.52-6.24c-1.004-1.856-4.043-3.537-3.6-5.76
		c0.351-1.762,3.068-1.698,4.32-3.12c-1.363-1.918-2.909-3.651-3.36-6.48c2.748-2.178,6.704-0.855,10.08-0.479
		c12.188,1.358,27.434,2.032,40.8,2.64c4.395,0.2,8.946,0.504,10.8-2.16c-0.037-0.763-0.544-1.056-0.48-1.92
		c-5.724,0.705-11.455-0.216-10.8-5.52c0.164-1.321,2.188-2.449,2.16-3.84c-0.03-1.522-2.502-2.643-1.44-4.801
		c-0.818-0.33-0.914,2.12-2.4,1.92c-1.219-1.021-1.783-2.696-2.16-4.56c-4.536-0.261-5.382-6.721-2.64-9.6
		c-5.844,1.918-11.003-1.714-9.36-7.2c-2.333-1.438-5.608-3.177-4.56-7.2c-1.27-1.415-3.441-1.631-4.561-3.84
		c-0.503-0.995-0.131-2.517-0.72-3.84c-0.657-1.478-2.865-2.237-3.6-3.601c-0.318-0.59,0.049-1.134-0.24-1.92
		c-0.809-2.194-3.522-3.038-3.84-4.32c-0.727-2.932,1.646-4.689,2.64-6.72c-1.032-1.288-1.528-3.111-2.64-4.319
		c-1.959-0.521-4.304-0.656-6-1.44c-0.065-2.772-6.17-5.179-1.44-6.96c-3.262-0.658-3.766-4.074-5.04-6.72
		c0-1.361,1.242-1.478,1.2-2.88c-1.775-2.948-7.507-6.006-4.08-9.84c-1.249-2.474-2.793-4.667-3.84-6.72
		c0.506-2.134,1.966-3.313,3.12-4.8c-1.033-2.152-3.192-4.865-1.44-7.68c-2.503-2.102-7.646-7.071-3.36-10.8
		c-2.339-2.937-8.067-6.524-4.32-11.28c1.425-0.494,3.945,0.105,5.04-0.72c-0.492-2.297-5.376-3.5-6.72-6.24
		c-0.962-1.962-2.739-4.01-2.16-6.72c0.544-2.55,4.269-4.162,7.439-2.4c1.078-2.112-1.399-2.975-2.4-4.08
		c-2.956-3.268-5.715-7.579-6.48-12.24c4.732-2.49,7.076,3.206,11.52,3.36c-1.623-2.778-3.774-7.106-6.72-9.36
		c-1.896-4.437-7.27-6.634-7.68-11.76c5.449,2.602,10.098,6.312,14.64,9.84c4.577,3.555,9.208,6.901,13.68,10.56
		c0.958-3.568-2.261-5.948-4.08-8.16c-3.843-4.673-7.274-9.544-10.32-15.12c-2.825-5.172-7.014-9.902-6.72-17.76
		c1.794,0.606,2.469,2.331,3.36,3.84c10.207,10.753,18.625,23.296,29.04,33.84c0.27-4.792-2.779-7.837-5.04-12
		c-4.989-9.187-10.828-19.116-12.72-31.2c-0.395-2.52-0.606-5.613,0.48-8.4c2.597,1.083,2.267,5.093,4.32,6.72
		c3.348,9.692,8.53,17.55,12.48,26.64c3.921,5.919,7.381,12.299,12,17.52c0.417-3.58-1.839-6.221-3.12-9.36
		c-5.305-13.002-11.649-32.519-6.96-50.4c0.06-0.26,0.477-0.163,0.48-0.479C85.377,64.564,85.618,64.564,85.858,64.564z
		 M238.738,284.164c3.792,0.447,7.471,1.01,10.08,2.64C249.018,282.419,241.04,281.66,238.738,284.164z"/>
</g>
</svg>
